<?xml version="1.0" encoding="UTF-8"?>
<svg id="All" xmlns="http://www.w3.org/2000/svg" width="299.3715237" height="39.2308678" version="1.1" viewBox="0 0 299.3715237 39.2308678">
  <!-- Generator: Adobe Illustrator 30.1.0, SVG Export Plug-In . SVG Version: 2.1.1 Build 136)  -->
  <defs>
    <style>
      .st0 {
        fill: #389dfe;
      }

      .st1 {
        fill: #9600ce;
      }

      .st2 {
        fill: #928e8e;
      }

      .st3 {
        fill: #0019ff;
      }
    </style>
  </defs>
  <g>
    <g>
      <path class="st3" d="M175.563167,12.8909657c-1.192275,1.3823158-2.5172227,3.1384499-4.0234566,5.4279794-5.3044173,8.0625719-8.9847327,9.8283859-13.1889772,9.3086562-1.5368397-.1899697-2.905632-.6589506-4.1087258-1.3292895-3.2239327,3.7380394-5.4469123,4.6585631-7.4296007,5.3620701,2.6191472,2.4227005,4.4822593,3.6839454,5.8850739,4.5545745,8.3993784,5.2125998,24.1670034,4.3865271,27.9262534-9.0666566,1.6389066-5.8650022-.395527-11.6580451-5.0605671-14.2573341Z"/>
      <path class="st0" d="M171.4544412,11.5616763c1.5368397.1899697,2.905632.6589506,4.1087258,1.3292895,3.2239327-3.7379682,5.4469123-4.6584919,7.4296007-5.3619989-2.6191472-2.4227717-4.4821881-3.6840166-5.8850027-4.5545745-8.3993784-5.2125998-24.1670034-4.3865271-27.9263246,9.0666566-1.6389066,5.8650022.3954558,11.6579739,5.0605671,14.257263,1.1922038-1.3823158,2.5172227-3.1384499,4.0234566-5.4279082,5.3044173-8.0626431,8.9847327-9.8284571,13.1889772-9.3087274Z"/>
      <path class="st1" d="M171.5397105,18.3189451c1.5062339-2.2895296,2.8311816-4.0456636,4.0234566-5.4279794-1.2030938-.6703388-2.5718861-1.1393198-4.1087258-1.3292895-4.2042445-.5197297-7.8845599,1.2460843-13.1889772,9.3087274-1.5062339,2.2894584-2.8312527,4.0455924-4.0234566,5.4279082,1.2030938.6703388,2.5718861,1.1393198,4.1087258,1.3292895,4.2042445.5197297,7.8845599-1.2460843,13.1889772-9.3086562Z"/>
    </g>
    <path class="st3" d="M0,21.0413812C0,10.5465711,7.6961561,2.8498456,18.6106219,2.8498456s18.4716857,7.6967255,18.4716857,18.1915356v1.5391173H4.8274646c.6297683,7.2064628,6.0175331,12.3140775,13.7831573,12.3140775,5.4572329,0,9.6549292-2.2389232,11.8938523-6.2270763h5.1076147c-2.6580095,6.3671513-8.9556927,10.5648476-17.001467,10.5648476C7.6961561,39.2323473,0,31.5361913,0,21.0413812ZM32.184236,18.3828023c-1.1194616-6.9969196-6.5766945-11.1946159-13.5736141-11.1946159-7.2064628,0-12.5942276,4.4078088-13.6430823,11.1946159h27.2166964Z"/>
    <path class="st3" d="M46.4935289,20.2715378c0-11.4741966,6.8568446-17.4216922,17.072074-17.4216922s17.072074,5.9474956,17.072074,17.4216922v18.0514605h-4.6873895v-18.0514605c0-8.5354676-4.8980715-13.0833515-12.3846844-13.0833515s-12.3835456,4.5478839-12.3835456,13.0833515v18.0514605h-4.6885283v-18.0514605Z"/>
    <path class="st3" d="M87.3003371,4.5081473c.7508578-2.1374332,4.2531824-2.1735396,5.2476897,0l12.7895507,29.3370047,12.762173-29.3370047c1.3818074-2.1121107,4.3528562-2.0445868,5.1076147,0l-15.1411712,33.814851h-5.597308l-15.1685489-33.814851Z"/>
    <path class="st3" d="M132.7196431,4.9060858c.4353812-2.9689784,4.6097197-2.4206353,4.6873895,0s-.0161835,33.4169125-.0161835,33.4169125h-4.6873895l.0161835-33.4169125Z"/>
    <path class="st3" d="M192.3835536,4.9060858c.4353812-2.9689784,4.6097197-2.4206353,4.6873895,0s-.0161835,33.4169125-.0161835,33.4169125h-4.6873895l.0161835-33.4169125Z"/>
    <path class="st3" d="M207.0753402,21.0413812c0-10.4948101,7.6961561-18.1915356,18.6106219-18.1915356s18.6106219,7.6967255,18.6106219,18.1915356-7.6961561,18.1909661-18.6106219,18.1909661-18.6106219-7.6961561-18.6106219-18.1909661ZM239.5397263,21.0413812c0-7.9763062-5.597308-13.8531948-13.8537642-13.8531948s-13.8537642,5.8768886-13.8537642,13.8531948,5.597308,13.8531948,13.8537642,13.8531948,13.8537642-5.8768886,13.8537642-13.8531948Z"/>
    <path class="st3" d="M253.8558521,20.2715378c0-11.4741966,6.8568446-17.4216922,17.072074-17.4216922s17.072074,5.9474956,17.072074,17.4216922v18.0514605h-4.6873895v-18.0514605c0-8.5354676-4.8980715-13.0833515-12.3846844-13.0833515s-12.3835456,4.5478839-12.3835456,13.0833515v18.0514605h-4.6885283v-18.0514605Z"/>
  </g>
  <g>
    <path class="st2" d="M291.2010077.991441c-.2577304-.1871692-.5870157-.2809195-.989181-.2809195-.1623237,0-.3226599.0162324-.4803458.0486971-.1570234.032796-.2968206.0871248-.418729.1629863-.122571.0761928-.2199652.1778936-.2935078.3054337-.07288.1275401-.1099826.2862198-.1099826.4760392,0,.1792187.0530037.3243162.159011.4356239s.2471296.2024078.4233668.2726376c.1762372.0708924.3756635.1291964.5982789.1752434s.4492061.0964004.6797721.1503979c.230566.0543288.4571567.1182644.6797721.1914758s.4220417.1722619.5982789.2971518.318022.2822446.4233668.472064c.1060073.1901507.159011.4289985.159011.7165434,0,.3094089-.0689048.574096-.2073769.79373-.1384721.2199652-.3166969.3988526-.5333494.5373247-.2173151.1384721-.4604694.2388478-.7288005.3014584-.2689936.0622793-.5359996.093419-.8016805.093419-.3259726,0-.6340564-.0407466-.9242515-.1219084-.2901951-.0814931-.5452753-.205058-.7652405-.3706944-.2199652-.1653052-.3935523-.3769886-.5214236-.6350502-.1272088-.2577304-.1908132-.5628327-.1908132-.9156384h.7327758c0,.2441482.0470408.4545065.1424474.6307437.0947441.1765685.2193027.321666.3743384.4356239.1543732.1139579.3352482.1981012.5413.25243s.4180665.0814931.634719.0814931c.1742496,0,.3491617-.0162324.5253989-.0490284.1762372-.0324647.3352482-.0881186.4763705-.1669616.1411223-.0785117.2550802-.1858441.3418737-.3213348.0867935-.1358219.1305215-.3094089.1305215-.5210923,0-.2007514-.0530037-.3637377-.159011-.4886276-.1060073-.1245586-.2471296-.2265907-.4233668-.3051024-.1762372-.078843-.3756635-.1424474-.5982789-.1914758-.2226154-.0486971-.4492061-.0990506-.6797721-.1507292-.230566-.0513473-.4571567-.1109764-.6797721-.1788874s-.4220417-.1573547-.5982789-.2686624c-.1768998-.1113077-.318022-.2550802-.4233668-.4316487-.1060073-.1762372-.159011-.3975275-.159011-.6635397,0-.2928453.0596291-.5466004.1788874-.7612652.1192583-.2143336.2782693-.3905708.4763705-.5290429s.4233668-.241498.6757968-.3094089.5114854-.1017008.7778289-.1017008c.2981457,0,.5750898.0354462.83017.1056761.2550802.0708924.4790207.1822001.6718215.3339231.1921383.1520543.3445239.3431988.4558316.574096.1113077.230566.1722619.5061851.1828627.8261947h-.7327758c-.0430655-.4177352-.1941259-.7205187-.4518563-.9076879Z"/>
    <path class="st2" d="M294.640946.197711l1.8319394,4.8846196,1.83989-4.8846196h1.0587483v5.8128464h-.7327758V1.1746349h-.0165636l-1.8153758,4.8359225h-.6592332l-1.8153758-4.8359225h-.0165636v4.8359225h-.7327758V.197711h1.0580858Z"/>
  </g>
</svg>