<svg width="142" height="22" viewBox="0 0 142 22" fill="none" xmlns="http://www.w3.org/2000/svg">
<g clip-path="url(#clip0_56445_7986)">
<path d="M5.37571 1.42017H12.4656C16.3503 1.42017 18.7846 2.47502 20.2959 3.99645C21.7869 5.48745 22.4664 7.42474 22.4664 9.85902C22.4664 12.8613 21.3203 15.5999 19.1801 17.7502C16.7763 20.154 13.3176 21.432 8.69243 21.432H0L5.37571 1.42017ZM9.43286 15.5999C11.4614 15.5999 13.206 15.0015 14.2304 13.9669C15.0621 13.1352 15.6606 11.7963 15.6606 10.569C15.6606 9.48374 15.3461 8.7636 14.8289 8.25645C14.2 7.62759 13.1959 7.25231 11.6034 7.25231H10.4877L8.25629 15.5999H9.43286Z" fill="#002E6D"/>
<path d="M26.696 1.42017H43.7563L42.2653 6.90745H31.7776L31.2299 8.93602H41.0076L39.7195 13.764H29.9417L29.3433 15.9346H39.973L38.5125 21.4219H21.3203L26.696 1.42017Z" fill="#002E6D"/>
<path d="M45.3586 1.42017H51.6168L56.1608 10.9646L58.7371 1.42017H65.3705L59.9948 21.432H54.0511L49.3042 11.4819L46.6163 21.432H39.9829L45.3586 1.42017Z" fill="#002E6D"/>
<path d="M71.1421 7.07988H65.2593L66.7706 1.42017H85.2306L83.7193 7.07988H77.8364L73.9821 21.432H67.298L71.1421 7.07988Z" fill="#002E6D"/>
<path d="M86.681 1.42017H94.4809C98.1729 1.42017 100.516 2.22145 101.855 3.56031C102.97 4.67602 103.427 6.15688 103.427 7.72902C103.427 10.8429 101.794 13.5307 97.8584 14.758L100.627 21.4219H93.426L91.1946 15.7013H89.5413L87.9996 21.4219H81.3154L86.681 1.42017ZM93.2333 10.9443C95.4647 10.9443 96.6311 9.91988 96.6311 8.66217C96.6311 8.26659 96.4891 7.89131 96.2051 7.60731C95.8299 7.23202 95.1807 7.03931 94.2374 7.03931H91.864L90.8091 10.9545H93.2333V10.9443Z" fill="#002E6D"/>
<path d="M107.119 1.42017H113.803L108.427 21.432H101.743L107.119 1.42017Z" fill="#002E6D"/>
<path d="M110.466 21.4016H118.235L122.972 16.4518L120.467 10.9443L110.466 21.4016Z" fill="#66C9BA"/>
<path d="M124.889 6.93786L127.323 12.1006C128.033 11.3399 128.804 10.5487 129.626 9.72715C137.314 2.08958 142 1.03472 142 1.03472C142 1.03472 134.576 -1.89657 124.889 6.93786Z" fill="#66C9BA"/>
<path d="M122.982 1.42017H115.872L124.98 21.4016H132.08L122.982 1.42017Z" fill="#002E6D"/>
<path d="M134.322 18.6123C133.551 18.6123 132.922 19.2412 132.922 20.012C132.922 20.7829 133.551 21.4117 134.322 21.4117C135.093 21.4117 135.722 20.7829 135.722 20.012C135.722 19.2412 135.093 18.6123 134.322 18.6123ZM134.322 21.1379C133.693 21.1379 133.186 20.6307 133.186 20.0019C133.186 19.3832 133.693 18.8659 134.322 18.8659C134.951 18.8659 135.458 19.373 135.458 20.0019C135.448 20.6307 134.941 21.1379 134.322 21.1379Z" fill="#002E6D"/>
<path d="M134.992 19.7179C134.992 19.5759 134.941 19.4542 134.86 19.373C134.758 19.2716 134.596 19.2108 134.403 19.2108H133.693V20.8032H133.977V20.2453H134.332L134.728 20.8032H135.063L134.637 20.2048C134.829 20.1338 134.992 19.9715 134.992 19.7179ZM133.967 19.9918V19.4542H134.373C134.576 19.4542 134.708 19.5455 134.708 19.7179C134.708 19.8802 134.576 19.9816 134.383 19.9816H133.967V19.9918Z" fill="#002E6D"/>
</g>
<defs>
<clipPath id="clip0_56445_7986">
<rect width="142" height="20.8639" fill="white" transform="translate(0 0.568115)"/>
</clipPath>
</defs>
</svg>
